<?xml version="1.0" encoding="UTF-8" standalone="no"?>
<svg
   version="1.1"
   id="svg1"
   width="1829.9988"
   height="911.0376"
   viewBox="0 0 1829.9988 911.0376"
   sodipodi:docname="logo.svg"
   inkscape:version="1.4.3 (0d15f75, 2025-12-25)"
   inkscape:export-filename="logo.svg"
   inkscape:export-xdpi="91.877396"
   inkscape:export-ydpi="91.877396"
   xmlns:inkscape="http://www.inkscape.org/namespaces/inkscape"
   xmlns:sodipodi="http://sodipodi.sourceforge.net/DTD/sodipodi-0.dtd"
   xmlns="http://www.w3.org/2000/svg"
   xmlns:svg="http://www.w3.org/2000/svg">
  <sodipodi:namedview
     id="namedview4"
     pagecolor="#505050"
     bordercolor="#eeeeee"
     borderopacity="1"
     inkscape:showpageshadow="0"
     inkscape:pageopacity="0"
     inkscape:pagecheckerboard="0"
     inkscape:deskcolor="#505050"
     inkscape:zoom="0.9088067"
     inkscape:cx="1014.5172"
     inkscape:cy="669.00915"
     inkscape:window-width="1047"
     inkscape:window-height="684"
     inkscape:window-x="23"
     inkscape:window-y="219"
     inkscape:window-maximized="0"
     inkscape:current-layer="svg1"
     inkscape:export-bgcolor="#ffffff00" />
  <defs
     id="defs4">
    <linearGradient
       id="swatch10"
       inkscape:swatch="solid">
      <stop
         style="stop-color:#000000;stop-opacity:1;"
         offset="0"
         id="stop10" />
    </linearGradient>
    <linearGradient
       id="logoGradient"
       x1="0%"
       y1="0%"
       x2="100%"
       y2="100%">
      <stop
         offset="0%"
         stop-color="#2E2333"
         id="stop1" />
      <stop
         offset="100%"
         stop-color="#2E2333"
         id="stop3" />
    </linearGradient>
    <filter
       id="textShadow"
       x="-0.0088687017"
       y="-0.011735174"
       width="1.0177208"
       height="1.0270764">
      <feGaussianBlur
         in="SourceAlpha"
         stdDeviation="2 2"
         id="feGaussianBlur3" />
      <feOffset
         dx="0"
         dy="2"
         result="offsetblur"
         id="feOffset3" />
      <feComponentTransfer
         id="feComponentTransfer3">
        <feFuncA
           type="linear"
           slope="0.5"
           id="feFuncA3" />
      </feComponentTransfer>
      <feMerge
         id="feMerge4">
        <feMergeNode
           id="feMergeNode3" />
        <feMergeNode
           in="SourceGraphic"
           id="feMergeNode4" />
      </feMerge>
    </filter>
  </defs>
  <path
     d="m 964.13763,716.28864 c -193.54793,-5.58282 -113.95577,-194.4067 -44.6382,-217.52045 9.77519,-3.25951 12.26967,-6.71747 6.0761,-14.36941 -17.05742,-21.07386 -16.91404,-31.44411 -23.3091,-45.03325 -17.71131,-37.63559 3.0521,-160.35532 141.23937,-124.36211 115.9544,30.20226 23.5377,132.50184 -11.317,146.38435 -5.288,1.94549 -20.5193,10.83505 -25.5965,11.31109 0.9657,13.27439 116.1341,141.32624 116.1341,141.32624 44.5696,-50.53131 -43.9767,-77.03025 -19.7527,-104.23388 11.4619,-12.87174 45.7853,-8.70697 45.7853,20.16161 8.8954,-23.73714 37.3029,-27.64067 48.3171,-14.88528 17.9727,20.81393 -3.7143,43.80359 -33.2339,57.39705 -27.898,12.84675 -18.0833,21.32611 -31.4411,52.63661 0,0 93.2546,73.76041 116.127,40.26432 10.3124,78.25453 -148.62,42.47345 -155.5296,14.23477 -52.2876,8.4472 -70.6619,37.08927 -128.86087,36.68834 z m 113.64617,-49.49436 c 0,0 -90.39718,-122.7871 -139.17967,-158.38687 -79.89097,50.52568 -18.26389,224.13456 139.17967,158.38687 z m -47.6519,-337.69956 c -61.96657,-19.36089 -105.74205,57.11726 -41.31803,132.05561 20.17923,18.95919 114.37603,-109.22934 41.31803,-132.05561 z M 526.63763,701.46477 c 0,-1.21576 50.94941,-40.74844 61.2238,-74.58457 4.15003,-4.29158 147.72722,-386.27001 147.7549,-393.88193 0.056,-15.35412 -23.9683,-51.34716 -38.546,-57.75018 -4.7905,-2.1041 -6.3858,-3.41853 -6.4174,-5.28754 -0.01,-0.49774 0.8534,-0.11882 1.9152,0.84205 1.8524,1.6764 1.9083,1.66245 1.3833,-0.34501 -0.5471,-2.09205 -0.5471,-2.09205 60.3196,-2.08909 68.1537,0.003 62.0292,-2.28031 72.4037,26.99703 3.66411,5.77294 62.3122,156.97112 58.0671,166.11162 -31.36124,67.52631 29.94796,130.88838 12.2058,130.88838 -1.2699,0 -45.71463,41.04186 -47.9735,39.17454 -123.09103,-101.75491 -308.287,37.3889 -190.5952,165.3327 15.86322,17.24505 -131.7413,5.3855 -131.7413,4.592 z m 312.0268,-204.81923 c 4.85405,-1.08316 -62.76032,-180.80082 -88.3087,-238.25105 -27.1838,85.06629 -70.72389,168.32039 -94.0888,256.55996 49.09897,-51.96527 120.01015,-26.49858 182.3975,-18.30891 z"
     style="fill:#b08a4f;fill-opacity:1;stroke:#a06100;stroke-width:3.21299;stroke-linecap:butt;stroke-linejoin:round;stroke-dasharray:none;stroke-dashoffset:3.21299;stroke-opacity:1;paint-order:normal;filter:url(#textShadow);fill-rule:nonzero"
     id="path1-4"
     sodipodi:nodetypes="cssssssssssscsscsssssssscscsscssssssscss"
     transform="matrix(1.5561812,0,0,1.5561812,-493.7906,-236.56333)" />
</svg>
